<svg width="16" height="16" viewBox="0 0 16 16" fill="none" xmlns="http://www.w3.org/2000/svg">
<path d="M9.40898 0.662993C8.85964 0.49966 8.42364 0.901659 8.28131 1.28966C8.19964 1.51199 8.12531 1.71799 8.05531 1.91133C7.77731 2.67999 7.57231 3.24633 7.29231 3.81633C6.40898 5.61599 5.28131 7.02433 3.17331 7.99166C2.36865 8.36099 1.85198 9.25766 2.10498 10.1667L2.51631 11.644C2.63189 12.0594 2.85651 12.4363 3.16686 12.7356C3.47721 13.035 3.862 13.2458 4.28131 13.3463L8.97131 14.4697C9.75033 14.6563 10.5714 14.5325 11.2607 14.1243C11.95 13.7162 12.4534 13.0558 12.6643 12.283L13.7756 8.21066C14.0793 7.09733 13.2413 5.99999 12.0873 5.99999H10.4073C10.6453 5.18666 10.828 4.18999 10.8206 3.28333C10.816 2.72033 10.738 2.16066 10.5303 1.69533C10.3173 1.21866 9.95931 0.825993 9.40898 0.662993Z" fill="#0085FF"/>
</svg>
