<svg width="16" height="16" viewBox="0 0 16 16" fill="none" xmlns="http://www.w3.org/2000/svg">
<path d="M4.66666 14C4.29999 14 3.98621 13.8696 3.72532 13.6087C3.46399 13.3473 3.33332 13.0333 3.33332 12.6667V4C3.14443 4 2.98599 3.93622 2.85799 3.80867C2.73043 3.68067 2.66666 3.52222 2.66666 3.33333C2.66666 3.14444 2.73043 2.986 2.85799 2.858C2.98599 2.73044 3.14443 2.66667 3.33332 2.66667H5.99999C5.99999 2.47778 6.06399 2.31933 6.19199 2.19133C6.31955 2.06378 6.47777 2 6.66666 2H9.33332C9.52221 2 9.68066 2.06378 9.80866 2.19133C9.93621 2.31933 9.99999 2.47778 9.99999 2.66667H12.6667C12.8555 2.66667 13.0138 2.73044 13.1413 2.858C13.2693 2.986 13.3333 3.14444 13.3333 3.33333C13.3333 3.52222 13.2693 3.68067 13.1413 3.80867C13.0138 3.93622 12.8555 4 12.6667 4V12.6667C12.6667 13.0333 12.5362 13.3473 12.2753 13.6087C12.014 13.8696 11.7 14 11.3333 14H4.66666ZM4.66666 4V12.6667H11.3333V4H4.66666ZM5.99999 10.6667C5.99999 10.8556 6.06399 11.0138 6.19199 11.1413C6.31955 11.2693 6.47777 11.3333 6.66666 11.3333C6.85555 11.3333 7.01399 11.2693 7.14199 11.1413C7.26955 11.0138 7.33332 10.8556 7.33332 10.6667V6C7.33332 5.81111 7.26955 5.65267 7.14199 5.52467C7.01399 5.39711 6.85555 5.33333 6.66666 5.33333C6.47777 5.33333 6.31955 5.39711 6.19199 5.52467C6.06399 5.65267 5.99999 5.81111 5.99999 6V10.6667ZM8.66666 10.6667C8.66666 10.8556 8.73066 11.0138 8.85866 11.1413C8.98621 11.2693 9.14443 11.3333 9.33332 11.3333C9.52221 11.3333 9.68066 11.2693 9.80866 11.1413C9.93621 11.0138 9.99999 10.8556 9.99999 10.6667V6C9.99999 5.81111 9.93621 5.65267 9.80866 5.52467C9.68066 5.39711 9.52221 5.33333 9.33332 5.33333C9.14443 5.33333 8.98621 5.39711 8.85866 5.52467C8.73066 5.65267 8.66666 5.81111 8.66666 6V10.6667ZM4.66666 4V12.6667V4Z" fill="#FF0000"/>
</svg>
