<svg width="16" height="16" viewBox="0 0 16 16" fill="none" xmlns="http://www.w3.org/2000/svg">
<path d="M12.6667 5.33331V3.99998H11.3333V2.66665H12.6667V1.33331H14V2.66665H15.3333V3.99998H14V5.33331H12.6667ZM1.99999 14.6666C1.63332 14.6666 1.31955 14.5362 1.05866 14.2753C0.797323 14.014 0.666656 13.7 0.666656 13.3333V5.33331C0.666656 4.96665 0.797323 4.65287 1.05866 4.39198C1.31955 4.13065 1.63332 3.99998 1.99999 3.99998H4.09999L5.33332 2.66665H9.33332V3.99998H5.91666L4.69999 5.33331H1.99999V13.3333H12.6667V7.33331H14V13.3333C14 13.7 13.8695 14.014 13.6087 14.2753C13.3473 14.5362 13.0333 14.6666 12.6667 14.6666H1.99999ZM7.33332 12.3333C8.16666 12.3333 8.8751 12.0418 9.45866 11.4586C10.0418 10.8751 10.3333 10.1666 10.3333 9.33331C10.3333 8.49998 10.0418 7.79154 9.45866 7.20798C8.8751 6.62487 8.16666 6.33331 7.33332 6.33331C6.49999 6.33331 5.79155 6.62487 5.20799 7.20798C4.62488 7.79154 4.33332 8.49998 4.33332 9.33331C4.33332 10.1666 4.62488 10.8751 5.20799 11.4586C5.79155 12.0418 6.49999 12.3333 7.33332 12.3333ZM7.33332 11C6.86666 11 6.47221 10.8389 6.14999 10.5166C5.82777 10.1944 5.66666 9.79998 5.66666 9.33331C5.66666 8.86665 5.82777 8.4722 6.14999 8.14998C6.47221 7.82776 6.86666 7.66665 7.33332 7.66665C7.79999 7.66665 8.19443 7.82776 8.51666 8.14998C8.83888 8.4722 8.99999 8.86665 8.99999 9.33331C8.99999 9.79998 8.83888 10.1944 8.51666 10.5166C8.19443 10.8389 7.79999 11 7.33332 11Z" fill="white"/>
</svg>
