<svg width="16" height="16" viewBox="0 0 16 16" fill="none" xmlns="http://www.w3.org/2000/svg">
<path d="M4.66666 11.342L7.60866 11.332L14.03 4.97202C14.282 4.72002 14.4207 4.38535 14.4207 4.02935C14.4207 3.67335 14.282 3.33868 14.03 3.08668L12.9727 2.02935C12.4687 1.52535 11.5893 1.52802 11.0893 2.02735L4.66666 8.38868V11.342V11.342ZM12.03 2.97202L13.0893 4.02735L12.0247 5.08202L10.9673 4.02535L12.03 2.97202ZM5.99999 8.94468L10.02 4.96268L11.0773 6.02002L7.05799 10.0007L5.99999 10.004V8.94468Z" fill="#0085FF"/>
<path d="M3.33333 14H12.6667C13.402 14 14 13.402 14 12.6667V6.888L12.6667 8.22133V12.6667H5.43867C5.42133 12.6667 5.40333 12.6733 5.386 12.6733C5.364 12.6733 5.342 12.6673 5.31933 12.6667H3.33333V3.33333H7.898L9.23133 2H3.33333C2.598 2 2 2.598 2 3.33333V12.6667C2 13.402 2.598 14 3.33333 14Z" fill="#0085FF"/>
</svg>
