<svg width="12" height="14" viewBox="0 0 12 14" fill="none" xmlns="http://www.w3.org/2000/svg">
<path d="M6.03502 0.922998C6.24502 0.402998 6.83002 -0.157002 7.58102 0.0519976C8.17102 0.215998 8.55402 0.571998 8.77402 1.048C8.97803 1.491 9.02802 2.013 9.03802 2.51C9.04803 3.045 8.93602 3.686 8.80503 4.248C8.74653 4.49633 8.68151 4.74309 8.61002 4.988H9.99502C10.3058 4.98802 10.6122 5.06044 10.8901 5.19953C11.168 5.33862 11.4096 5.54055 11.5959 5.7893C11.7821 6.03804 11.9078 6.32677 11.9631 6.63256C12.0183 6.93836 12.0015 7.25282 11.914 7.551L10.55 12.197C10.4564 12.5158 10.3002 12.8128 10.0906 13.0705C9.88088 13.3283 9.62192 13.5417 9.32882 13.6982C9.03572 13.8547 8.71436 13.9512 8.38353 13.9821C8.05269 14.013 7.71902 13.9776 7.40202 13.878L2.04602 12.196C1.75627 12.105 1.49105 11.9492 1.27048 11.7404C1.04991 11.5316 0.879792 11.2753 0.773024 10.991L0.253024 9.607C0.0875361 9.16653 0.0826432 8.68182 0.239206 8.2381C0.395769 7.79439 0.703762 7.42008 1.10902 7.181L2.98102 6.077C3.16966 5.9278 3.34469 5.76215 3.50402 5.582C3.84802 5.193 4.32102 4.546 4.79602 3.537C5.00102 3.101 5.17302 2.758 5.32902 2.447C5.58202 1.944 5.79402 1.523 6.03502 0.922998ZM3.51902 6.92C3.51342 6.92344 3.50775 6.92677 3.50202 6.93L1.61702 8.042C1.41439 8.16154 1.2604 8.34869 1.18212 8.57055C1.10383 8.79241 1.10628 9.03476 1.18902 9.255L1.70902 10.639C1.7624 10.7813 1.8475 10.9096 1.95788 11.0141C2.06826 11.1186 2.201 11.1965 2.34602 11.242L7.70002 12.924C7.89026 12.9839 8.09054 13.0053 8.28915 12.9869C8.48775 12.9685 8.6807 12.9107 8.85669 12.8169C9.03268 12.723 9.18818 12.595 9.3141 12.4403C9.44002 12.2856 9.53382 12.1074 9.59002 11.916L10.953 7.27C10.9969 7.12084 11.0053 6.96351 10.9777 6.81051C10.9501 6.6575 10.8872 6.51304 10.7941 6.3886C10.7009 6.26415 10.5799 6.16315 10.4409 6.09361C10.3018 6.02407 10.1485 5.98791 9.99302 5.988H7.92702C7.84703 5.98795 7.76821 5.96871 7.69719 5.9319C7.62617 5.89508 7.56502 5.84176 7.51888 5.77641C7.47273 5.71107 7.44294 5.6356 7.43201 5.55636C7.42107 5.47711 7.42931 5.3964 7.45602 5.321C7.55602 5.039 7.70802 4.55 7.83202 4.019C7.95802 3.481 8.04702 2.937 8.03902 2.529C8.02902 2.061 7.98002 1.713 7.86602 1.467C7.76802 1.252 7.61502 1.099 7.31402 1.015C7.27102 1.003 7.22002 1.007 7.15402 1.05C7.06787 1.11152 7.00177 1.19709 6.96402 1.296C6.73368 1.85742 6.47842 2.4083 6.19902 2.947C6.04402 3.256 5.88102 3.581 5.70202 3.962C5.18802 5.056 4.66202 5.784 4.25202 6.245C4.04802 6.475 3.87402 6.638 3.74602 6.747C3.68102 6.80226 3.61362 6.85464 3.54402 6.904L3.52802 6.914L3.52302 6.918L3.52002 6.92H3.51902ZM2.97602 6.08L2.97502 6.081L2.97602 6.08Z" fill="black"/>
</svg>
